<svg width="28" height="28" viewBox="0 0 28 28" fill="none" xmlns="http://www.w3.org/2000/svg">
<path d="M19.5413 14C19.5413 14.483 19.1493 14.875 18.6663 14.875H14.8747V18.6666C14.8747 19.1496 13.9997 19.5416 13.9997 19.5416C13.5167 19.5416 13.1247 19.1496 13.1247 18.6666V14.875H9.33301C8.85001 14.875 8.45801 14.483 8.45801 14C8.45801 13.517 8.85001 13.125 9.33301 13.125H13.1247V9.33331C13.1247 8.85031 13.5167 8.45831 13.9997 8.45831C14.4827 8.45831 14.8747 8.85031 14.8747 9.33331V13.125H18.6663C19.1493 13.125 19.5413 13.517 19.5413 14Z" fill="#FF385C"/>
</svg>