 <svg width="24" height="24" viewBox="0 0 24 24" fill="none" xmlns="http://www.w3.org/2000/svg">
<path d="M19.9178 5.25549C18.7198 3.80049 17.0548 3.00049 15.2288 3.00049C14.0798 3.00049 12.9708 3.29148 12.0008 3.84448C11.0308 3.29148 9.92183 3.00049 8.77283 3.00049C6.94683 3.00049 5.28183 3.80149 4.08383 5.25549C2.77483 6.84449 2.23083 9.01449 2.63083 11.0615C3.58583 15.9575 8.60481 19.3965 10.7188 20.6485C11.1148 20.8825 11.5568 20.9995 12.0008 20.9995C12.4448 20.9995 12.8878 20.8825 13.2828 20.6485C15.3958 19.3975 20.4148 15.9585 21.3698 11.0615C21.7698 9.01449 21.2268 6.84449 19.9178 5.25549ZM20.3888 10.8695C19.5118 15.3685 14.7708 18.6045 12.7728 19.7875C12.2958 20.0695 11.7048 20.0695 11.2278 19.7875C9.22981 18.6045 4.48981 15.3685 3.61181 10.8695C3.26881 9.11348 3.73383 7.2515 4.85483 5.8905C5.85983 4.6705 7.25082 3.99948 8.77182 3.99948C9.83682 3.99948 10.8598 4.29248 11.7298 4.84848C11.8938 4.95248 12.1038 4.95248 12.2678 4.84848C13.1378 4.29248 14.1608 3.99948 15.2258 3.99948C16.7468 3.99948 18.1388 4.6705 19.1428 5.8905C20.2668 7.2525 20.7318 9.11348 20.3888 10.8695Z" fill="#A8B3B9"/>
</svg>