<svg width="20" height="19" viewBox="0 0 20 19" fill="none" xmlns="http://www.w3.org/2000/svg">
<path d="M19.3694 8.56201C18.4144 13.458 13.3954 16.8969 11.2824 18.1489C10.8864 18.3819 10.4434 18.5 10.0004 18.5C9.55742 18.5 9.11441 18.3829 8.71841 18.1489C6.60441 16.8969 1.58543 13.459 0.630429 8.56201C0.231429 6.51501 0.774432 4.34488 2.08343 2.75488C3.28143 1.30088 4.94643 0.5 6.77243 0.5C7.92143 0.5 9.03042 0.790994 10.0004 1.34399C10.9704 0.790994 12.0794 0.5 13.2284 0.5C15.0544 0.5 16.7194 1.30088 17.9174 2.75488C19.2254 4.34488 19.7684 6.51501 19.3694 8.56201Z" fill="#FF385C"/>
</svg>
